# Wavefront OBJ file automatically generated by Tiled2Unity

# Vertices (Count = 120)
v -0.5 -1 0
v -1 -1 0
v -1 -0.5 0
v -0.5 -0.5 0
v -1.5 -1 0
v -1.5 -0.5 0
v -2 -1 0
v -2 -0.5 0
v -2.5 -1 0
v -2.5 -0.5 0
v -3 -1 0
v -3 -0.5 0
v -3.5 -1 0
v -3.5 -0.5 0
v -4 -1 0
v -4 -0.5 0
v -0.5 -1.5 0
v -1 -1.5 0
v -1.5 -1.5 0
v -2 -1.5 0
v -2.5 -1.5 0
v -3 -1.5 0
v -3.5 -1.5 0
v -4 -1.5 0
v -0.5 -2 0
v -1 -2 0
v -1.5 -2 0
v -2 -2 0
v -2.5 -2 0
v -3 -2 0
v -3.5 -2 0
v -4 -2 0
v -0.5 -2.5 0
v -1 -2.5 0
v -1.5 -2.5 0
v -2 -2.5 0
v -2.5 -2.5 0
v -3 -2.5 0
v -3.5 -2.5 0
v -4 -2.5 0
v 0 -3 0
v -0.5 -3 0
v 0 -2.5 0
v -1 -3 0
v -1.5 -3 0
v -2 -3 0
v -2.5 -3 0
v -3 -3 0
v -3.5 -3 0
v -4 -3 0
v -4.5 -3 0
v -4.5 -2.5 0
v -0.5 -3.5 0
v -1 -3.5 0
v -1.5 -3.5 0
v -2 -3.5 0
v -2.5 -3.5 0
v -3 -3.5 0
v -3.5 -3.5 0
v -4 -3.5 0
v -0.5 -4 0
v -1 -4 0
v -1.5 -4 0
v -2 -4 0
v -2.5 -4 0
v -3 -4 0
v -3.5 -4 0
v -4 -4 0
v -0.5 -4.5 0
v -1 -4.5 0
v -1.5 -4.5 0
v -2 -4.5 0
v -2.5 -4.5 0
v -3 -4.5 0
v -3.5 -4.5 0
v -4 -4.5 0
v -0.5 -5 0
v -1 -5 0
v -1.5 -5 0
v -2 -5 0
v -2.5 -5 0
v -3 -5 0
v -3.5 -5 0
v -4 -5 0
v -1 -5.5 0
v -1.5 -5.5 0
v 0 -0.5 0
v -0.5 0 0
v 0 0 0
v -1 0 0
v -1.5 0 0
v -2 0 0
v -2.5 0 0
v -3 0 0
v -3.5 0 0
v -4 0 0
v -4.5 -0.5 0
v -4.5 0 0
v 0 -1 0
v -4.5 -1 0
v 0 -1.5 0
v -4.5 -1.5 0
v 0 -2 0
v -4.5 -2 0
v 0 -3.5 0
v -4.5 -3.5 0
v 0 -4 0
v -4.5 -4 0
v 0 -4.5 0
v -4.5 -4.5 0
v 0 -5 0
v -4.5 -5 0
v 0 -5.5 0
v -0.5 -5.5 0
v -2 -5.5 0
v -2.5 -5.5 0
v -3 -5.5 0
v -3.5 -5.5 0
v -4 -5.5 0
v -4.5 -5.5 0

# Texture cooridinates (Count = 184)
vt 0.0001220703 0.8183039
vt 0.1248779 0.8183039
vt 0.1248779 0.8483628
vt 0.0001220703 0.8483628
vt 0.2501221 0.7273948
vt 0.3748779 0.7273948
vt 0.3748779 0.7574537
vt 0.2501221 0.7574537
vt 0.1251221 0.8183039
vt 0.2498779 0.8183039
vt 0.2498779 0.8483628
vt 0.1251221 0.8483628
vt 0.1251221 0.7273948
vt 0.2498779 0.7273948
vt 0.2498779 0.7574537
vt 0.1251221 0.7574537
vt 0.3751221 0.7273948
vt 0.4998779 0.7273948
vt 0.4998779 0.7574537
vt 0.3751221 0.7574537
vt 0.0001220703 0.7880008
vt 0.1248779 0.7880008
vt 0.1248779 0.8180597
vt 0.0001220703 0.8180597
vt 0.2501221 0.6970918
vt 0.3748779 0.6970918
vt 0.3748779 0.7271507
vt 0.2501221 0.7271507
vt 0.1251221 0.7880008
vt 0.2498779 0.7880008
vt 0.2498779 0.8180597
vt 0.1251221 0.8180597
vt 0.1251221 0.6970918
vt 0.2498779 0.6970918
vt 0.2498779 0.7271507
vt 0.1251221 0.7271507
vt 0.3751221 0.6970918
vt 0.4998779 0.6970918
vt 0.4998779 0.7271507
vt 0.3751221 0.7271507
vt 0.0001220703 0.7576978
vt 0.1248779 0.7576978
vt 0.1248779 0.7877567
vt 0.0001220703 0.7877567
vt 0.2501221 0.6667887
vt 0.3748779 0.6667887
vt 0.3748779 0.6968476
vt 0.2501221 0.6968476
vt 0.1251221 0.7576978
vt 0.2498779 0.7576978
vt 0.2498779 0.7877567
vt 0.1251221 0.7877567
vt 0.1251221 0.6667887
vt 0.2498779 0.6667887
vt 0.2498779 0.6968476
vt 0.1251221 0.6968476
vt 0.3751221 0.6667887
vt 0.4998779 0.6667887
vt 0.4998779 0.6968476
vt 0.3751221 0.6968476
vt 0.0001220703 0.9698191
vt 0.1248779 0.9698191
vt 0.1248779 0.9998779
vt 0.0001220703 0.9998779
vt 0.5001221 0.939516
vt 0.6248779 0.939516
vt 0.6248779 0.9695749
vt 0.5001221 0.9695749
vt 0.2501221 0.9092129
vt 0.3748779 0.9092129
vt 0.3748779 0.9392719
vt 0.2501221 0.9392719
vt 0.5001221 0.8789099
vt 0.6248779 0.8789099
vt 0.6248779 0.9089688
vt 0.5001221 0.9089688
vt 0.1251221 0.8486069
vt 0.2498779 0.8486069
vt 0.2498779 0.8786658
vt 0.1251221 0.8786658
vt 0.3751221 0.8789099
vt 0.4998779 0.8789099
vt 0.4998779 0.9089688
vt 0.3751221 0.9089688
vt 0.2501221 0.8789099
vt 0.3748779 0.8789099
vt 0.3748779 0.9089688
vt 0.2501221 0.9089688
vt 0.0001220703 0.8789099
vt 0.1248779 0.8789099
vt 0.1248779 0.9089688
vt 0.0001220703 0.9089688
vt 0.8751221 0.4243645
vt 0.9998779 0.4243645
vt 0.9998779 0.4544234
vt 0.8751221 0.4544234
vt 0.3751221 0.4849706
vt 0.4998779 0.4849706
vt 0.4998779 0.5150294
vt 0.3751221 0.5150294
vt 0.5001221 0.4849706
vt 0.6248779 0.4849706
vt 0.6248779 0.5150294
vt 0.5001221 0.5150294
vt 0.6251221 0.4849706
vt 0.7498779 0.4849706
vt 0.7498779 0.5150294
vt 0.6251221 0.5150294
vt 0.8751221 0.3940614
vt 0.9998779 0.3940614
vt 0.9998779 0.4241204
vt 0.8751221 0.4241204
vt 0.3751221 0.4546675
vt 0.4998779 0.4546675
vt 0.4998779 0.4847264
vt 0.3751221 0.4847264
vt 0.5001221 0.4546675
vt 0.6248779 0.4546675
vt 0.6248779 0.4847264
vt 0.5001221 0.4847264
vt 0.6251221 0.4546675
vt 0.7498779 0.4546675
vt 0.7498779 0.4847264
vt 0.6251221 0.4847264
vt 0.6251221 0.3334554
vt 0.7498779 0.3334554
vt 0.7498779 0.3635143
vt 0.6251221 0.3635143
vt 0.3751221 0.4243645
vt 0.4998779 0.4243645
vt 0.4998779 0.4544234
vt 0.3751221 0.4544234
vt 0.5001221 0.4243645
vt 0.6248779 0.4243645
vt 0.6248779 0.4544234
vt 0.5001221 0.4544234
vt 0.6251221 0.4243645
vt 0.7498779 0.4243645
vt 0.7498779 0.4544234
vt 0.6251221 0.4544234
vt 0.7501221 0.3334554
vt 0.8748779 0.3334554
vt 0.8748779 0.3635143
vt 0.7501221 0.3635143
vt 0.6251221 0.3031524
vt 0.7498779 0.3031524
vt 0.7498779 0.3332112
vt 0.6251221 0.3332112
vt 0.3751221 0.3940614
vt 0.4998779 0.3940614
vt 0.4998779 0.4241204
vt 0.3751221 0.4241204
vt 0.5001221 0.3940614
vt 0.6248779 0.3940614
vt 0.6248779 0.4241204
vt 0.5001221 0.4241204
vt 0.6251221 0.3940614
vt 0.7498779 0.3940614
vt 0.7498779 0.4241204
vt 0.6251221 0.4241204
vt 0.7501221 0.3031524
vt 0.8748779 0.3031524
vt 0.8748779 0.3332112
vt 0.7501221 0.3332112
vt 0.5001221 0.9092129
vt 0.6248779 0.9092129
vt 0.6248779 0.9392719
vt 0.5001221 0.9392719
vt 0.1251221 0.9092129
vt 0.2498779 0.9092129
vt 0.2498779 0.9392719
vt 0.1251221 0.9392719
vt 0.0001220703 0.9092129
vt 0.1248779 0.9092129
vt 0.1248779 0.9392719
vt 0.0001220703 0.9392719
vt 0.3751221 0.9092129
vt 0.4998779 0.9092129
vt 0.4998779 0.9392719
vt 0.3751221 0.9392719
vt 0.0001220703 0.939516
vt 0.1248779 0.939516
vt 0.1248779 0.9695749
vt 0.0001220703 0.9695749

# Normal
vn 0 0 -1

# Groups (Count = 3)

g mesh_0001
f 1/1/1 2/2/1 3/3/1 4/4/1
f 2/5/1 5/6/1 6/7/1 3/8/1
f 5/9/1 7/10/1 8/11/1 6/12/1
f 7/13/1 9/14/1 10/15/1 8/16/1
f 9/9/1 11/10/1 12/11/1 10/12/1
f 11/17/1 13/18/1 14/19/1 12/20/1
f 13/9/1 15/10/1 16/11/1 14/12/1
f 17/21/1 18/22/1 2/23/1 1/24/1
f 18/25/1 19/26/1 5/27/1 2/28/1
f 19/29/1 20/30/1 7/31/1 5/32/1
f 20/33/1 21/34/1 9/35/1 7/36/1
f 21/29/1 22/30/1 11/31/1 9/32/1
f 22/37/1 23/38/1 13/39/1 11/40/1
f 23/29/1 24/30/1 15/31/1 13/32/1
f 25/41/1 26/42/1 18/43/1 17/44/1
f 26/45/1 27/46/1 19/47/1 18/48/1
f 27/49/1 28/50/1 20/51/1 19/52/1
f 28/53/1 29/54/1 21/55/1 20/56/1
f 29/49/1 30/50/1 22/51/1 21/52/1
f 30/57/1 31/58/1 23/59/1 22/60/1
f 31/49/1 32/50/1 24/51/1 23/52/1
f 33/61/1 34/62/1 26/63/1 25/64/1
f 34/61/1 35/62/1 27/63/1 26/64/1
f 35/61/1 36/62/1 28/63/1 27/64/1
f 36/61/1 37/62/1 29/63/1 28/64/1
f 37/61/1 38/62/1 30/63/1 29/64/1
f 38/61/1 39/62/1 31/63/1 30/64/1
f 39/61/1 40/62/1 32/63/1 31/64/1
f 41/65/1 42/66/1 33/67/1 43/68/1
f 42/61/1 44/62/1 34/63/1 33/64/1
f 44/61/1 45/62/1 35/63/1 34/64/1
f 45/61/1 46/62/1 36/63/1 35/64/1
f 46/61/1 47/62/1 37/63/1 36/64/1
f 47/61/1 48/62/1 38/63/1 37/64/1
f 48/61/1 49/62/1 39/63/1 38/64/1
f 49/61/1 50/62/1 40/63/1 39/64/1
f 50/65/1 51/66/1 52/67/1 40/68/1
f 53/61/1 54/62/1 44/63/1 42/64/1
f 54/61/1 55/62/1 45/63/1 44/64/1
f 55/61/1 56/62/1 46/63/1 45/64/1
f 56/61/1 57/62/1 47/63/1 46/64/1
f 57/61/1 58/62/1 48/63/1 47/64/1
f 58/61/1 59/62/1 49/63/1 48/64/1
f 59/61/1 60/62/1 50/63/1 49/64/1
f 61/61/1 62/62/1 54/63/1 53/64/1
f 62/61/1 63/62/1 55/63/1 54/64/1
f 63/61/1 64/62/1 56/63/1 55/64/1
f 64/61/1 65/62/1 57/63/1 56/64/1
f 65/61/1 66/62/1 58/63/1 57/64/1
f 66/61/1 67/62/1 59/63/1 58/64/1
f 67/61/1 68/62/1 60/63/1 59/64/1
f 69/61/1 70/62/1 62/63/1 61/64/1
f 70/61/1 71/62/1 63/63/1 62/64/1
f 71/61/1 72/62/1 64/63/1 63/64/1
f 72/61/1 73/62/1 65/63/1 64/64/1
f 73/61/1 74/62/1 66/63/1 65/64/1
f 74/61/1 75/62/1 67/63/1 66/64/1
f 75/61/1 76/62/1 68/63/1 67/64/1
f 77/61/1 78/62/1 70/63/1 69/64/1
f 78/61/1 79/62/1 71/63/1 70/64/1
f 79/61/1 80/62/1 72/63/1 71/64/1
f 80/61/1 81/62/1 73/63/1 72/64/1
f 81/61/1 82/62/1 74/63/1 73/64/1
f 82/61/1 83/62/1 75/63/1 74/64/1
f 83/61/1 84/62/1 76/63/1 75/64/1
f 85/69/1 86/70/1 79/71/1 78/72/1

g mesh_0002
f 87/73/1 4/74/1 88/75/1 89/76/1
f 4/77/1 3/78/1 90/79/1 88/80/1
f 3/77/1 6/78/1 91/79/1 90/80/1
f 6/77/1 8/78/1 92/79/1 91/80/1
f 8/77/1 10/78/1 93/79/1 92/80/1
f 10/77/1 12/78/1 94/79/1 93/80/1
f 12/77/1 14/78/1 95/79/1 94/80/1
f 14/77/1 16/78/1 96/79/1 95/80/1
f 16/81/1 97/82/1 98/83/1 96/84/1
f 99/85/1 1/86/1 4/87/1 87/88/1
f 15/89/1 100/90/1 97/91/1 16/92/1
f 101/85/1 17/86/1 1/87/1 99/88/1
f 24/89/1 102/90/1 100/91/1 15/92/1
f 103/85/1 25/86/1 17/87/1 101/88/1
f 25/93/1 26/94/1 18/95/1 17/96/1
f 27/97/1 28/98/1 20/99/1 19/100/1
f 28/101/1 29/102/1 21/103/1 20/104/1
f 29/105/1 30/106/1 22/107/1 21/108/1
f 31/93/1 32/94/1 24/95/1 23/96/1
f 32/89/1 104/90/1 102/91/1 24/92/1
f 43/85/1 33/86/1 25/87/1 103/88/1
f 33/109/1 34/110/1 26/111/1 25/112/1
f 35/113/1 36/114/1 28/115/1 27/116/1
f 36/117/1 37/118/1 29/119/1 28/120/1
f 37/121/1 38/122/1 30/123/1 29/124/1
f 39/109/1 40/110/1 32/111/1 31/112/1
f 40/89/1 52/90/1 104/91/1 32/92/1
f 41/85/1 42/86/1 33/87/1 43/88/1
f 42/125/1 44/126/1 34/127/1 33/128/1
f 45/129/1 46/130/1 36/131/1 35/132/1
f 46/133/1 47/134/1 37/135/1 36/136/1
f 47/137/1 48/138/1 38/139/1 37/140/1
f 49/141/1 50/142/1 40/143/1 39/144/1
f 50/89/1 51/90/1 52/91/1 40/92/1
f 105/85/1 53/86/1 42/87/1 41/88/1
f 53/145/1 54/146/1 44/147/1 42/148/1
f 55/149/1 56/150/1 46/151/1 45/152/1
f 56/153/1 57/154/1 47/155/1 46/156/1
f 57/157/1 58/158/1 48/159/1 47/160/1
f 59/161/1 60/162/1 50/163/1 49/164/1
f 60/89/1 106/90/1 51/91/1 50/92/1
f 107/85/1 61/86/1 53/87/1 105/88/1
f 61/125/1 62/126/1 54/127/1 53/128/1
f 67/141/1 68/142/1 60/143/1 59/144/1
f 68/89/1 108/90/1 106/91/1 60/92/1
f 109/85/1 69/86/1 61/87/1 107/88/1
f 69/145/1 70/146/1 62/147/1 61/148/1
f 75/161/1 76/162/1 68/163/1 67/164/1
f 76/89/1 110/90/1 108/91/1 68/92/1
f 111/85/1 77/86/1 69/87/1 109/88/1
f 84/89/1 112/90/1 110/91/1 76/92/1
f 113/165/1 114/166/1 77/167/1 111/168/1
f 114/169/1 85/170/1 78/171/1 77/172/1
f 85/69/1 86/70/1 79/71/1 78/72/1
f 86/61/1 115/62/1 80/63/1 79/64/1
f 115/61/1 116/62/1 81/63/1 80/64/1
f 116/61/1 117/62/1 82/63/1 81/64/1
f 117/173/1 118/174/1 83/175/1 82/176/1
f 118/169/1 119/170/1 84/171/1 83/172/1
f 119/177/1 120/178/1 112/179/1 84/180/1

g mesh_0003
f 87/181/1 4/182/1 88/183/1 89/184/1
f 4/181/1 3/182/1 90/183/1 88/184/1
f 3/181/1 6/182/1 91/183/1 90/184/1
f 6/181/1 8/182/1 92/183/1 91/184/1
f 8/181/1 10/182/1 93/183/1 92/184/1
f 10/181/1 12/182/1 94/183/1 93/184/1
f 12/181/1 14/182/1 95/183/1 94/184/1
f 14/181/1 16/182/1 96/183/1 95/184/1
f 16/181/1 97/182/1 98/183/1 96/184/1
f 99/181/1 1/182/1 4/183/1 87/184/1
f 1/181/1 2/182/1 3/183/1 4/184/1
f 2/181/1 5/182/1 6/183/1 3/184/1
f 5/181/1 7/182/1 8/183/1 6/184/1
f 7/181/1 9/182/1 10/183/1 8/184/1
f 9/181/1 11/182/1 12/183/1 10/184/1
f 11/181/1 13/182/1 14/183/1 12/184/1
f 13/181/1 15/182/1 16/183/1 14/184/1
f 15/181/1 100/182/1 97/183/1 16/184/1
f 101/181/1 17/182/1 1/183/1 99/184/1
f 17/181/1 18/182/1 2/183/1 1/184/1
f 19/181/1 20/182/1 7/183/1 5/184/1
f 20/181/1 21/182/1 9/183/1 7/184/1
f 21/181/1 22/182/1 11/183/1 9/184/1
f 22/181/1 23/182/1 13/183/1 11/184/1
f 23/181/1 24/182/1 15/183/1 13/184/1
f 24/181/1 102/182/1 100/183/1 15/184/1
f 103/181/1 25/182/1 17/183/1 101/184/1
f 25/181/1 26/182/1 18/183/1 17/184/1
f 26/181/1 27/182/1 19/183/1 18/184/1
f 27/181/1 28/182/1 20/183/1 19/184/1
f 28/181/1 29/182/1 21/183/1 20/184/1
f 29/181/1 30/182/1 22/183/1 21/184/1
f 30/181/1 31/182/1 23/183/1 22/184/1
f 31/181/1 32/182/1 24/183/1 23/184/1
f 32/181/1 104/182/1 102/183/1 24/184/1
f 43/181/1 33/182/1 25/183/1 103/184/1
f 33/181/1 34/182/1 26/183/1 25/184/1
f 35/181/1 36/182/1 28/183/1 27/184/1
f 36/181/1 37/182/1 29/183/1 28/184/1
f 37/181/1 38/182/1 30/183/1 29/184/1
f 39/181/1 40/182/1 32/183/1 31/184/1
f 40/181/1 52/182/1 104/183/1 32/184/1
f 41/181/1 42/182/1 33/183/1 43/184/1
f 42/181/1 44/182/1 34/183/1 33/184/1
f 45/181/1 46/182/1 36/183/1 35/184/1
f 46/181/1 47/182/1 37/183/1 36/184/1
f 47/181/1 48/182/1 38/183/1 37/184/1
f 49/181/1 50/182/1 40/183/1 39/184/1
f 50/181/1 51/182/1 52/183/1 40/184/1
f 105/181/1 53/182/1 42/183/1 41/184/1
f 53/181/1 54/182/1 44/183/1 42/184/1
f 55/181/1 56/182/1 46/183/1 45/184/1
f 56/181/1 57/182/1 47/183/1 46/184/1
f 57/181/1 58/182/1 48/183/1 47/184/1
f 59/181/1 60/182/1 50/183/1 49/184/1
f 60/181/1 106/182/1 51/183/1 50/184/1
f 107/181/1 61/182/1 53/183/1 105/184/1
f 61/181/1 62/182/1 54/183/1 53/184/1
f 67/181/1 68/182/1 60/183/1 59/184/1
f 68/181/1 108/182/1 106/183/1 60/184/1
f 109/181/1 69/182/1 61/183/1 107/184/1
f 69/181/1 70/182/1 62/183/1 61/184/1
f 75/181/1 76/182/1 68/183/1 67/184/1
f 76/181/1 110/182/1 108/183/1 68/184/1
f 111/181/1 77/182/1 69/183/1 109/184/1
f 84/181/1 112/182/1 110/183/1 76/184/1
f 113/181/1 114/182/1 77/183/1 111/184/1
f 114/181/1 85/182/1 78/183/1 77/184/1
f 85/181/1 86/182/1 79/183/1 78/184/1
f 86/61/1 115/62/1 80/63/1 79/64/1
f 115/61/1 116/62/1 81/63/1 80/64/1
f 116/61/1 117/62/1 82/63/1 81/64/1
f 117/181/1 118/182/1 83/183/1 82/184/1
f 118/181/1 119/182/1 84/183/1 83/184/1
f 119/181/1 120/182/1 112/183/1 84/184/1

