# Wavefront OBJ file automatically generated by Tiled2Unity

# Vertices (Count = 256)
v 0 -0.5 0
v -0.5 -0.5 0
v -0.5 0 0
v 0 0 0
v -1 -0.5 0
v -1 0 0
v -1.5 -0.5 0
v -1.5 0 0
v -2 -0.5 0
v -2 0 0
v -2.5 -0.5 0
v -2.5 0 0
v -3 -0.5 0
v -3 0 0
v -3.5 -0.5 0
v -3.5 0 0
v -4 -0.5 0
v -4 0 0
v -4.5 -0.5 0
v -4.5 0 0
v -5 -0.5 0
v -5 0 0
v -5.5 -0.5 0
v -5.5 0 0
v -6 -0.5 0
v -6 0 0
v -6.5 -0.5 0
v -6.5 0 0
v -7 -0.5 0
v -7 0 0
v -7.5 -0.5 0
v -7.5 0 0
v 0 -1 0
v -0.5 -1 0
v -1 -1 0
v -1.5 -1 0
v -2 -1 0
v -2.5 -1 0
v -3 -1 0
v -3.5 -1 0
v -4 -1 0
v -4.5 -1 0
v -5 -1 0
v -5.5 -1 0
v -6 -1 0
v -6.5 -1 0
v -7 -1 0
v -7.5 -1 0
v 0 -1.5 0
v -0.5 -1.5 0
v -1 -1.5 0
v -1.5 -1.5 0
v -2 -1.5 0
v -2.5 -1.5 0
v -3 -1.5 0
v -3.5 -1.5 0
v -4 -1.5 0
v -4.5 -1.5 0
v -5 -1.5 0
v -5.5 -1.5 0
v -6 -1.5 0
v -6.5 -1.5 0
v -7 -1.5 0
v -7.5 -1.5 0
v 0 -2 0
v -0.5 -2 0
v -1 -2 0
v -1.5 -2 0
v -2 -2 0
v -2.5 -2 0
v -3 -2 0
v -3.5 -2 0
v -4 -2 0
v -4.5 -2 0
v -5 -2 0
v -5.5 -2 0
v -6 -2 0
v -6.5 -2 0
v -7 -2 0
v -7.5 -2 0
v 0 -2.5 0
v -0.5 -2.5 0
v -1 -2.5 0
v -1.5 -2.5 0
v -2 -2.5 0
v -2.5 -2.5 0
v -3 -2.5 0
v -3.5 -2.5 0
v -4 -2.5 0
v -4.5 -2.5 0
v -5 -2.5 0
v -5.5 -2.5 0
v -6 -2.5 0
v -6.5 -2.5 0
v -7 -2.5 0
v -7.5 -2.5 0
v 0 -3 0
v -0.5 -3 0
v -1 -3 0
v -1.5 -3 0
v -2 -3 0
v -2.5 -3 0
v -3 -3 0
v -3.5 -3 0
v -4 -3 0
v -4.5 -3 0
v -5 -3 0
v -5.5 -3 0
v -6 -3 0
v -6.5 -3 0
v -7 -3 0
v -7.5 -3 0
v 0 -3.5 0
v -0.5 -3.5 0
v -1 -3.5 0
v -1.5 -3.5 0
v -2 -3.5 0
v -2.5 -3.5 0
v -3 -3.5 0
v -3.5 -3.5 0
v -4 -3.5 0
v -4.5 -3.5 0
v -5 -3.5 0
v -5.5 -3.5 0
v -6 -3.5 0
v -6.5 -3.5 0
v -7 -3.5 0
v -7.5 -3.5 0
v 0 -4 0
v -0.5 -4 0
v -1 -4 0
v -1.5 -4 0
v -2 -4 0
v -2.5 -4 0
v -3 -4 0
v -3.5 -4 0
v -4 -4 0
v -4.5 -4 0
v -5 -4 0
v -5.5 -4 0
v -6 -4 0
v -6.5 -4 0
v -7 -4 0
v -7.5 -4 0
v 0 -4.5 0
v -0.5 -4.5 0
v -1 -4.5 0
v -1.5 -4.5 0
v -2 -4.5 0
v -2.5 -4.5 0
v -3 -4.5 0
v -3.5 -4.5 0
v -4 -4.5 0
v -4.5 -4.5 0
v -5 -4.5 0
v -5.5 -4.5 0
v -6 -4.5 0
v -6.5 -4.5 0
v -7 -4.5 0
v -7.5 -4.5 0
v 0 -5 0
v -0.5 -5 0
v -1 -5 0
v -1.5 -5 0
v -2 -5 0
v -2.5 -5 0
v -3 -5 0
v -3.5 -5 0
v -4 -5 0
v -4.5 -5 0
v -5 -5 0
v -5.5 -5 0
v -6 -5 0
v -6.5 -5 0
v -7 -5 0
v -7.5 -5 0
v 0 -5.5 0
v -0.5 -5.5 0
v -1 -5.5 0
v -1.5 -5.5 0
v -2 -5.5 0
v -2.5 -5.5 0
v -3 -5.5 0
v -3.5 -5.5 0
v -4 -5.5 0
v -4.5 -5.5 0
v -5 -5.5 0
v -5.5 -5.5 0
v -6 -5.5 0
v -6.5 -5.5 0
v -7 -5.5 0
v -7.5 -5.5 0
v 0 -6 0
v -0.5 -6 0
v -1 -6 0
v -1.5 -6 0
v -2 -6 0
v -2.5 -6 0
v -3 -6 0
v -3.5 -6 0
v -4 -6 0
v -4.5 -6 0
v -5 -6 0
v -5.5 -6 0
v -6 -6 0
v -6.5 -6 0
v -7 -6 0
v -7.5 -6 0
v 0 -6.5 0
v -0.5 -6.5 0
v -1 -6.5 0
v -1.5 -6.5 0
v -2 -6.5 0
v -2.5 -6.5 0
v -3 -6.5 0
v -3.5 -6.5 0
v -4 -6.5 0
v -4.5 -6.5 0
v -5 -6.5 0
v -5.5 -6.5 0
v -6 -6.5 0
v -6.5 -6.5 0
v -7 -6.5 0
v -7.5 -6.5 0
v 0 -7 0
v -0.5 -7 0
v -1 -7 0
v -1.5 -7 0
v -2 -7 0
v -2.5 -7 0
v -3 -7 0
v -3.5 -7 0
v -4 -7 0
v -4.5 -7 0
v -5 -7 0
v -5.5 -7 0
v -6 -7 0
v -6.5 -7 0
v -7 -7 0
v -7.5 -7 0
v 0 -7.5 0
v -0.5 -7.5 0
v -1 -7.5 0
v -1.5 -7.5 0
v -2 -7.5 0
v -2.5 -7.5 0
v -3 -7.5 0
v -3.5 -7.5 0
v -4 -7.5 0
v -4.5 -7.5 0
v -5 -7.5 0
v -5.5 -7.5 0
v -6 -7.5 0
v -6.5 -7.5 0
v -7 -7.5 0
v -7.5 -7.5 0

# Texture cooridinates (Count = 248)
vt 0.0001220703 0.9688721
vt 0.1248779 0.9688721
vt 0.1248779 0.9998779
vt 0.0001220703 0.9998779
vt 0.1251221 0.2188721
vt 0.2498779 0.2188721
vt 0.2498779 0.2498779
vt 0.1251221 0.2498779
vt 0.0001220703 0.2188721
vt 0.1248779 0.2188721
vt 0.1248779 0.2498779
vt 0.0001220703 0.2498779
vt 0.2501221 0.2188721
vt 0.3748779 0.2188721
vt 0.3748779 0.2498779
vt 0.2501221 0.2498779
vt 0.7501221 0.8438721
vt 0.8748779 0.8438721
vt 0.8748779 0.8748779
vt 0.7501221 0.8748779
vt 0.0001220703 0.1876221
vt 0.1248779 0.1876221
vt 0.1248779 0.2186279
vt 0.0001220703 0.2186279
vt 0.1251221 0.1876221
vt 0.2498779 0.1876221
vt 0.2498779 0.2186279
vt 0.1251221 0.2186279
vt 0.2501221 0.1876221
vt 0.3748779 0.1876221
vt 0.3748779 0.2186279
vt 0.2501221 0.2186279
vt 0.0001220703 0.8438721
vt 0.1248779 0.8438721
vt 0.1248779 0.8748779
vt 0.0001220703 0.8748779
vt 0.1251221 0.8438721
vt 0.2498779 0.8438721
vt 0.2498779 0.8748779
vt 0.1251221 0.8748779
vt 0.2501221 0.8438721
vt 0.3748779 0.8438721
vt 0.3748779 0.8748779
vt 0.2501221 0.8748779
vt 0.0001220703 0.8126221
vt 0.1248779 0.8126221
vt 0.1248779 0.8436279
vt 0.0001220703 0.8436279
vt 0.1251221 0.8126221
vt 0.2498779 0.8126221
vt 0.2498779 0.8436279
vt 0.1251221 0.8436279
vt 0.2501221 0.8126221
vt 0.3748779 0.8126221
vt 0.3748779 0.8436279
vt 0.2501221 0.8436279
vt 0.3751221 0.2188721
vt 0.4998779 0.2188721
vt 0.4998779 0.2498779
vt 0.3751221 0.2498779
vt 0.5001221 0.2188721
vt 0.6248779 0.2188721
vt 0.6248779 0.2498779
vt 0.5001221 0.2498779
vt 0.6251221 0.2188721
vt 0.7498779 0.2188721
vt 0.7498779 0.2498779
vt 0.6251221 0.2498779
vt 0.7501221 0.2188721
vt 0.8748779 0.2188721
vt 0.8748779 0.2498779
vt 0.7501221 0.2498779
vt 0.8751221 0.2188721
vt 0.9998779 0.2188721
vt 0.9998779 0.2498779
vt 0.8751221 0.2498779
vt 0.3751221 0.9688721
vt 0.4998779 0.9688721
vt 0.4998779 0.9998779
vt 0.3751221 0.9998779
vt 0.3751221 0.1876221
vt 0.4998779 0.1876221
vt 0.4998779 0.2186279
vt 0.3751221 0.2186279
vt 0.5001221 0.1876221
vt 0.6248779 0.1876221
vt 0.6248779 0.2186279
vt 0.5001221 0.2186279
vt 0.6251221 0.1876221
vt 0.7498779 0.1876221
vt 0.7498779 0.2186279
vt 0.6251221 0.2186279
vt 0.7501221 0.1876221
vt 0.8748779 0.1876221
vt 0.8748779 0.2186279
vt 0.7501221 0.2186279
vt 0.8751221 0.1876221
vt 0.9998779 0.1876221
vt 0.9998779 0.2186279
vt 0.8751221 0.2186279
vt 0.5001221 0.9688721
vt 0.6248779 0.9688721
vt 0.6248779 0.9998779
vt 0.5001221 0.9998779
vt 0.3751221 0.1563721
vt 0.4998779 0.1563721
vt 0.4998779 0.1873779
vt 0.3751221 0.1873779
vt 0.5001221 0.1563721
vt 0.6248779 0.1563721
vt 0.6248779 0.1873779
vt 0.5001221 0.1873779
vt 0.6251221 0.1563721
vt 0.7498779 0.1563721
vt 0.7498779 0.1873779
vt 0.6251221 0.1873779
vt 0.7501221 0.1563721
vt 0.8748779 0.1563721
vt 0.8748779 0.1873779
vt 0.7501221 0.1873779
vt 0.8751221 0.1563721
vt 0.9998779 0.1563721
vt 0.9998779 0.1873779
vt 0.8751221 0.1873779
vt 0.6251221 0.8126221
vt 0.7498779 0.8126221
vt 0.7498779 0.8436279
vt 0.6251221 0.8436279
vt 0.7501221 0.8126221
vt 0.8748779 0.8126221
vt 0.8748779 0.8436279
vt 0.7501221 0.8436279
vt 0.8751221 0.8126221
vt 0.9998779 0.8126221
vt 0.9998779 0.8436279
vt 0.8751221 0.8436279
vt 0.6251221 0.7813721
vt 0.7498779 0.7813721
vt 0.7498779 0.8123779
vt 0.6251221 0.8123779
vt 0.7501221 0.7813721
vt 0.8748779 0.7813721
vt 0.8748779 0.8123779
vt 0.7501221 0.8123779
vt 0.8751221 0.7813721
vt 0.9998779 0.7813721
vt 0.9998779 0.8123779
vt 0.8751221 0.8123779
vt 0.5001221 0.4376221
vt 0.6248779 0.4376221
vt 0.6248779 0.4686279
vt 0.5001221 0.4686279
vt 0.6251221 0.4376221
vt 0.7498779 0.4376221
vt 0.7498779 0.4686279
vt 0.6251221 0.4686279
vt 0.7501221 0.4376221
vt 0.8748779 0.4376221
vt 0.8748779 0.4686279
vt 0.7501221 0.4686279
vt 0.8751221 0.4376221
vt 0.9998779 0.4376221
vt 0.9998779 0.4686279
vt 0.8751221 0.4686279
vt 0.2501221 0.9688721
vt 0.3748779 0.9688721
vt 0.3748779 0.9998779
vt 0.2501221 0.9998779
vt 0.2501221 0.9376221
vt 0.3748779 0.9376221
vt 0.3748779 0.9686279
vt 0.2501221 0.9686279
vt 0.6251221 0.9688721
vt 0.7498779 0.9688721
vt 0.7498779 0.9998779
vt 0.6251221 0.9998779
vt 0.7501221 0.9688721
vt 0.8748779 0.9688721
vt 0.8748779 0.9998779
vt 0.7501221 0.9998779
vt 0.5001221 0.5626221
vt 0.6248779 0.5626221
vt 0.6248779 0.5936279
vt 0.5001221 0.5936279
vt 0.6251221 0.5626221
vt 0.7498779 0.5626221
vt 0.7498779 0.5936279
vt 0.6251221 0.5936279
vt 0.7501221 0.5626221
vt 0.8748779 0.5626221
vt 0.8748779 0.5936279
vt 0.7501221 0.5936279
vt 0.8751221 0.5626221
vt 0.9998779 0.5626221
vt 0.9998779 0.5936279
vt 0.8751221 0.5936279
vt 0.5001221 0.5313721
vt 0.6248779 0.5313721
vt 0.6248779 0.5623779
vt 0.5001221 0.5623779
vt 0.6251221 0.5313721
vt 0.7498779 0.5313721
vt 0.7498779 0.5623779
vt 0.6251221 0.5623779
vt 0.7501221 0.5313721
vt 0.8748779 0.5313721
vt 0.8748779 0.5623779
vt 0.7501221 0.5623779
vt 0.8751221 0.5313721
vt 0.9998779 0.5313721
vt 0.9998779 0.5623779
vt 0.8751221 0.5623779
vt 0.5001221 0.5001221
vt 0.6248779 0.5001221
vt 0.6248779 0.5311279
vt 0.5001221 0.5311279
vt 0.6251221 0.5001221
vt 0.7498779 0.5001221
vt 0.7498779 0.5311279
vt 0.6251221 0.5311279
vt 0.7501221 0.5001221
vt 0.8748779 0.5001221
vt 0.8748779 0.5311279
vt 0.7501221 0.5311279
vt 0.8751221 0.5001221
vt 0.9998779 0.5001221
vt 0.9998779 0.5311279
vt 0.8751221 0.5311279
vt 0.5001221 0.4688721
vt 0.6248779 0.4688721
vt 0.6248779 0.4998779
vt 0.5001221 0.4998779
vt 0.6251221 0.4688721
vt 0.7498779 0.4688721
vt 0.7498779 0.4998779
vt 0.6251221 0.4998779
vt 0.7501221 0.4688721
vt 0.8748779 0.4688721
vt 0.8748779 0.4998779
vt 0.7501221 0.4998779
vt 0.8751221 0.4688721
vt 0.9998779 0.4688721
vt 0.9998779 0.4998779
vt 0.8751221 0.4998779
vt 0.0001220703 0.9376221
vt 0.1248779 0.9376221
vt 0.1248779 0.9686279
vt 0.0001220703 0.9686279

# Normal
vn 0 0 -1

# Groups (Count = 4)

g mesh_0001
f 1/1/1 2/2/1 3/3/1 4/4/1
f 2/1/1 5/2/1 6/3/1 3/4/1
f 5/1/1 7/2/1 8/3/1 6/4/1
f 7/1/1 9/2/1 10/3/1 8/4/1
f 9/5/1 11/6/1 12/7/1 10/8/1
f 11/5/1 13/6/1 14/7/1 12/8/1
f 13/5/1 15/6/1 16/7/1 14/8/1
f 15/5/1 17/6/1 18/7/1 16/8/1
f 17/5/1 19/6/1 20/7/1 18/8/1
f 19/5/1 21/6/1 22/7/1 20/8/1
f 21/5/1 23/6/1 24/7/1 22/8/1
f 23/1/1 25/2/1 26/3/1 24/4/1
f 25/1/1 27/2/1 28/3/1 26/4/1
f 27/1/1 29/2/1 30/3/1 28/4/1
f 29/1/1 31/2/1 32/3/1 30/4/1
f 33/1/1 34/2/1 2/3/1 1/4/1
f 34/1/1 35/2/1 5/3/1 2/4/1
f 35/1/1 36/2/1 7/3/1 5/4/1
f 36/1/1 37/2/1 9/3/1 7/4/1
f 37/9/1 38/10/1 11/11/1 9/12/1
f 38/5/1 39/6/1 13/7/1 11/8/1
f 39/5/1 40/6/1 15/7/1 13/8/1
f 40/5/1 41/6/1 17/7/1 15/8/1
f 41/5/1 42/6/1 19/7/1 17/8/1
f 42/5/1 43/6/1 21/7/1 19/8/1
f 43/13/1 44/14/1 23/15/1 21/16/1
f 44/1/1 45/2/1 25/3/1 23/4/1
f 45/1/1 46/2/1 27/3/1 25/4/1
f 46/1/1 47/2/1 29/3/1 27/4/1
f 47/1/1 48/2/1 31/3/1 29/4/1
f 49/1/1 50/2/1 34/3/1 33/4/1
f 50/1/1 51/2/1 35/3/1 34/4/1
f 51/1/1 52/2/1 36/3/1 35/4/1
f 52/1/1 53/2/1 37/3/1 36/4/1
f 53/9/1 54/10/1 38/11/1 37/12/1
f 54/5/1 55/6/1 39/7/1 38/8/1
f 55/17/1 56/18/1 40/19/1 39/20/1
f 56/17/1 57/18/1 41/19/1 40/20/1
f 57/17/1 58/18/1 42/19/1 41/20/1
f 58/5/1 59/6/1 43/7/1 42/8/1
f 59/13/1 60/14/1 44/15/1 43/16/1
f 60/1/1 61/2/1 45/3/1 44/4/1
f 61/1/1 62/2/1 46/3/1 45/4/1
f 62/1/1 63/2/1 47/3/1 46/4/1
f 63/1/1 64/2/1 48/3/1 47/4/1
f 65/1/1 66/2/1 50/3/1 49/4/1
f 66/1/1 67/2/1 51/3/1 50/4/1
f 67/1/1 68/2/1 52/3/1 51/4/1
f 68/1/1 69/2/1 53/3/1 52/4/1
f 69/21/1 70/22/1 54/23/1 53/24/1
f 70/25/1 71/26/1 55/27/1 54/28/1
f 71/17/1 72/18/1 56/19/1 55/20/1
f 72/17/1 73/18/1 57/19/1 56/20/1
f 73/17/1 74/18/1 58/19/1 57/20/1
f 74/25/1 75/26/1 59/27/1 58/28/1
f 75/29/1 76/30/1 60/31/1 59/32/1
f 76/1/1 77/2/1 61/3/1 60/4/1
f 77/1/1 78/2/1 62/3/1 61/4/1
f 78/1/1 79/2/1 63/3/1 62/4/1
f 79/1/1 80/2/1 64/3/1 63/4/1
f 81/1/1 82/2/1 66/3/1 65/4/1
f 82/1/1 83/2/1 67/3/1 66/4/1
f 83/1/1 84/2/1 68/3/1 67/4/1
f 84/1/1 85/2/1 69/3/1 68/4/1
f 85/33/1 86/34/1 70/35/1 69/36/1
f 86/37/1 87/38/1 71/39/1 70/40/1
f 87/37/1 88/38/1 72/39/1 71/40/1
f 88/37/1 89/38/1 73/39/1 72/40/1
f 89/37/1 90/38/1 74/39/1 73/40/1
f 90/37/1 91/38/1 75/39/1 74/40/1
f 91/41/1 92/42/1 76/43/1 75/44/1
f 92/1/1 93/2/1 77/3/1 76/4/1
f 93/1/1 94/2/1 78/3/1 77/4/1
f 94/1/1 95/2/1 79/3/1 78/4/1
f 95/1/1 96/2/1 80/3/1 79/4/1
f 97/1/1 98/2/1 82/3/1 81/4/1
f 98/1/1 99/2/1 83/3/1 82/4/1
f 99/1/1 100/2/1 84/3/1 83/4/1
f 100/1/1 101/2/1 85/3/1 84/4/1
f 101/45/1 102/46/1 86/47/1 85/48/1
f 102/49/1 103/50/1 87/51/1 86/52/1
f 103/49/1 104/50/1 88/51/1 87/52/1
f 104/49/1 105/50/1 89/51/1 88/52/1
f 105/49/1 106/50/1 90/51/1 89/52/1
f 106/49/1 107/50/1 91/51/1 90/52/1
f 107/53/1 108/54/1 92/55/1 91/56/1
f 108/1/1 109/2/1 93/3/1 92/4/1
f 109/1/1 110/2/1 94/3/1 93/4/1
f 110/1/1 111/2/1 95/3/1 94/4/1
f 111/1/1 112/2/1 96/3/1 95/4/1
f 113/1/1 114/2/1 98/3/1 97/4/1
f 114/1/1 115/2/1 99/3/1 98/4/1
f 115/1/1 116/2/1 100/3/1 99/4/1
f 116/1/1 117/2/1 101/3/1 100/4/1
f 117/45/1 118/46/1 102/47/1 101/48/1
f 118/49/1 119/50/1 103/51/1 102/52/1
f 119/49/1 120/50/1 104/51/1 103/52/1
f 120/49/1 121/50/1 105/51/1 104/52/1
f 121/49/1 122/50/1 106/51/1 105/52/1
f 122/49/1 123/50/1 107/51/1 106/52/1
f 123/53/1 124/54/1 108/55/1 107/56/1
f 124/1/1 125/2/1 109/3/1 108/4/1
f 125/1/1 126/2/1 110/3/1 109/4/1
f 126/1/1 127/2/1 111/3/1 110/4/1
f 127/1/1 128/2/1 112/3/1 111/4/1
f 129/1/1 130/2/1 114/3/1 113/4/1
f 130/1/1 131/2/1 115/3/1 114/4/1
f 131/1/1 132/2/1 116/3/1 115/4/1
f 132/1/1 133/2/1 117/3/1 116/4/1
f 133/45/1 134/46/1 118/47/1 117/48/1
f 134/49/1 135/50/1 119/51/1 118/52/1
f 135/49/1 136/50/1 120/51/1 119/52/1
f 136/49/1 137/50/1 121/51/1 120/52/1
f 137/49/1 138/50/1 122/51/1 121/52/1
f 138/49/1 139/50/1 123/51/1 122/52/1
f 139/53/1 140/54/1 124/55/1 123/56/1
f 140/1/1 141/2/1 125/3/1 124/4/1
f 141/1/1 142/2/1 126/3/1 125/4/1
f 142/1/1 143/2/1 127/3/1 126/4/1
f 143/1/1 144/2/1 128/3/1 127/4/1
f 145/1/1 146/2/1 130/3/1 129/4/1
f 146/1/1 147/2/1 131/3/1 130/4/1
f 147/1/1 148/2/1 132/3/1 131/4/1
f 148/1/1 149/2/1 133/3/1 132/4/1
f 149/45/1 150/46/1 134/47/1 133/48/1
f 150/49/1 151/50/1 135/51/1 134/52/1
f 151/49/1 152/50/1 136/51/1 135/52/1
f 152/49/1 153/50/1 137/51/1 136/52/1
f 153/49/1 154/50/1 138/51/1 137/52/1
f 154/49/1 155/50/1 139/51/1 138/52/1
f 155/53/1 156/54/1 140/55/1 139/56/1
f 156/1/1 157/2/1 141/3/1 140/4/1
f 157/1/1 158/2/1 142/3/1 141/4/1
f 158/1/1 159/2/1 143/3/1 142/4/1
f 159/1/1 160/2/1 144/3/1 143/4/1
f 161/1/1 162/2/1 146/3/1 145/4/1
f 162/1/1 163/2/1 147/3/1 146/4/1
f 163/1/1 164/2/1 148/3/1 147/4/1
f 164/1/1 165/2/1 149/3/1 148/4/1
f 165/45/1 166/46/1 150/47/1 149/48/1
f 166/49/1 167/50/1 151/51/1 150/52/1
f 167/49/1 168/50/1 152/51/1 151/52/1
f 168/49/1 169/50/1 153/51/1 152/52/1
f 169/49/1 170/50/1 154/51/1 153/52/1
f 170/49/1 171/50/1 155/51/1 154/52/1
f 171/53/1 172/54/1 156/55/1 155/56/1
f 172/1/1 173/2/1 157/3/1 156/4/1
f 173/1/1 174/2/1 158/3/1 157/4/1
f 174/1/1 175/2/1 159/3/1 158/4/1
f 175/1/1 176/2/1 160/3/1 159/4/1
f 177/1/1 178/2/1 162/3/1 161/4/1
f 178/1/1 179/2/1 163/3/1 162/4/1
f 179/1/1 180/2/1 164/3/1 163/4/1
f 180/1/1 181/2/1 165/3/1 164/4/1
f 181/45/1 182/46/1 166/47/1 165/48/1
f 182/49/1 183/50/1 167/51/1 166/52/1
f 183/49/1 184/50/1 168/51/1 167/52/1
f 184/49/1 185/50/1 169/51/1 168/52/1
f 185/49/1 186/50/1 170/51/1 169/52/1
f 186/49/1 187/50/1 171/51/1 170/52/1
f 187/53/1 188/54/1 172/55/1 171/56/1
f 188/1/1 189/2/1 173/3/1 172/4/1
f 189/1/1 190/2/1 174/3/1 173/4/1
f 190/1/1 191/2/1 175/3/1 174/4/1
f 191/1/1 192/2/1 176/3/1 175/4/1
f 193/1/1 194/2/1 178/3/1 177/4/1
f 194/1/1 195/2/1 179/3/1 178/4/1
f 195/1/1 196/2/1 180/3/1 179/4/1
f 196/1/1 197/2/1 181/3/1 180/4/1
f 197/45/1 198/46/1 182/47/1 181/48/1
f 198/49/1 199/50/1 183/51/1 182/52/1
f 199/49/1 200/50/1 184/51/1 183/52/1
f 200/49/1 201/50/1 185/51/1 184/52/1
f 201/49/1 202/50/1 186/51/1 185/52/1
f 202/49/1 203/50/1 187/51/1 186/52/1
f 203/53/1 204/54/1 188/55/1 187/56/1
f 204/1/1 205/2/1 189/3/1 188/4/1
f 205/1/1 206/2/1 190/3/1 189/4/1
f 206/1/1 207/2/1 191/3/1 190/4/1
f 207/1/1 208/2/1 192/3/1 191/4/1
f 209/1/1 210/2/1 194/3/1 193/4/1
f 210/1/1 211/2/1 195/3/1 194/4/1
f 211/1/1 212/2/1 196/3/1 195/4/1
f 212/1/1 213/2/1 197/3/1 196/4/1
f 213/45/1 214/46/1 198/47/1 197/48/1
f 214/49/1 215/50/1 199/51/1 198/52/1
f 215/49/1 216/50/1 200/51/1 199/52/1
f 216/49/1 217/50/1 201/51/1 200/52/1
f 217/49/1 218/50/1 202/51/1 201/52/1
f 218/49/1 219/50/1 203/51/1 202/52/1
f 219/53/1 220/54/1 204/55/1 203/56/1
f 220/1/1 221/2/1 205/3/1 204/4/1
f 221/1/1 222/2/1 206/3/1 205/4/1
f 222/1/1 223/2/1 207/3/1 206/4/1
f 223/1/1 224/2/1 208/3/1 207/4/1
f 225/1/1 226/2/1 210/3/1 209/4/1
f 226/1/1 227/2/1 211/3/1 210/4/1
f 227/1/1 228/2/1 212/3/1 211/4/1
f 228/1/1 229/2/1 213/3/1 212/4/1
f 229/45/1 230/46/1 214/47/1 213/48/1
f 230/49/1 231/50/1 215/51/1 214/52/1
f 231/49/1 232/50/1 216/51/1 215/52/1
f 232/49/1 233/50/1 217/51/1 216/52/1
f 233/49/1 234/50/1 218/51/1 217/52/1
f 234/49/1 235/50/1 219/51/1 218/52/1
f 235/53/1 236/54/1 220/55/1 219/56/1
f 236/1/1 237/2/1 221/3/1 220/4/1
f 237/1/1 238/2/1 222/3/1 221/4/1
f 238/1/1 239/2/1 223/3/1 222/4/1
f 239/1/1 240/2/1 224/3/1 223/4/1
f 241/1/1 242/2/1 226/3/1 225/4/1
f 242/1/1 243/2/1 227/3/1 226/4/1
f 243/1/1 244/2/1 228/3/1 227/4/1
f 244/1/1 245/2/1 229/3/1 228/4/1
f 245/45/1 246/46/1 230/47/1 229/48/1
f 246/49/1 247/50/1 231/51/1 230/52/1
f 247/49/1 248/50/1 232/51/1 231/52/1
f 248/49/1 249/50/1 233/51/1 232/52/1
f 249/49/1 250/50/1 234/51/1 233/52/1
f 250/49/1 251/50/1 235/51/1 234/52/1
f 251/53/1 252/54/1 236/55/1 235/56/1
f 252/1/1 253/2/1 237/3/1 236/4/1
f 253/1/1 254/2/1 238/3/1 237/4/1
f 254/1/1 255/2/1 239/3/1 238/4/1
f 255/1/1 256/2/1 240/3/1 239/4/1

g mesh_0002
f 7/57/1 9/58/1 10/59/1 8/60/1
f 9/61/1 11/62/1 12/63/1 10/64/1
f 11/65/1 13/66/1 14/67/1 12/68/1
f 13/65/1 15/66/1 16/67/1 14/68/1
f 15/65/1 17/66/1 18/67/1 16/68/1
f 17/65/1 19/66/1 20/67/1 18/68/1
f 19/65/1 21/66/1 22/67/1 20/68/1
f 21/69/1 23/70/1 24/71/1 22/72/1
f 23/73/1 25/74/1 26/75/1 24/76/1
f 34/77/1 35/78/1 5/79/1 2/80/1
f 36/81/1 37/82/1 9/83/1 7/84/1
f 37/85/1 38/86/1 11/87/1 9/88/1
f 38/89/1 39/90/1 13/91/1 11/92/1
f 39/89/1 40/90/1 15/91/1 13/92/1
f 40/89/1 41/90/1 17/91/1 15/92/1
f 41/89/1 42/90/1 19/91/1 17/92/1
f 42/89/1 43/90/1 21/91/1 19/92/1
f 43/93/1 44/94/1 23/95/1 21/96/1
f 44/97/1 45/98/1 25/99/1 23/100/1
f 46/77/1 47/78/1 29/79/1 27/80/1
f 50/101/1 51/102/1 35/103/1 34/104/1
f 52/105/1 53/106/1 37/107/1 36/108/1
f 53/109/1 54/110/1 38/111/1 37/112/1
f 54/113/1 55/114/1 39/115/1 38/116/1
f 55/113/1 56/114/1 40/115/1 39/116/1
f 56/113/1 57/114/1 41/115/1 40/116/1
f 57/113/1 58/114/1 42/115/1 41/116/1
f 58/113/1 59/114/1 43/115/1 42/116/1
f 59/117/1 60/118/1 44/119/1 43/120/1
f 60/121/1 61/122/1 45/123/1 44/124/1
f 86/125/1 87/126/1 71/127/1 70/128/1
f 87/129/1 88/130/1 72/131/1 71/132/1
f 88/129/1 89/130/1 73/131/1 72/132/1
f 89/129/1 90/130/1 74/131/1 73/132/1
f 90/133/1 91/134/1 75/135/1 74/136/1
f 102/137/1 103/138/1 87/139/1 86/140/1
f 103/141/1 104/142/1 88/143/1 87/144/1
f 104/141/1 105/142/1 89/143/1 88/144/1
f 105/141/1 106/142/1 90/143/1 89/144/1
f 106/145/1 107/146/1 91/147/1 90/148/1
f 124/149/1 125/150/1 109/151/1 108/152/1
f 125/153/1 126/154/1 110/155/1 109/156/1
f 126/157/1 127/158/1 111/159/1 110/160/1
f 127/161/1 128/162/1 112/163/1 111/164/1
f 129/101/1 130/102/1 114/103/1 113/104/1
f 140/165/1 141/166/1 125/167/1 124/168/1
f 143/77/1 144/78/1 128/79/1 127/80/1
f 146/149/1 147/150/1 131/151/1 130/152/1
f 147/153/1 148/154/1 132/155/1 131/156/1
f 148/157/1 149/158/1 133/159/1 132/160/1
f 149/161/1 150/162/1 134/163/1 133/164/1
f 156/169/1 157/170/1 141/171/1 140/172/1
f 158/165/1 159/166/1 143/167/1 142/168/1
f 195/169/1 196/170/1 180/171/1 179/172/1
f 210/77/1 211/78/1 195/79/1 194/80/1
f 211/101/1 212/102/1 196/103/1 195/104/1
f 225/77/1 226/78/1 210/79/1 209/80/1
f 235/149/1 236/150/1 220/151/1 219/152/1
f 236/153/1 237/154/1 221/155/1 220/156/1
f 237/157/1 238/158/1 222/159/1 221/160/1
f 238/161/1 239/162/1 223/163/1 222/164/1
f 241/165/1 242/166/1 226/167/1 225/168/1
f 253/173/1 254/174/1 238/175/1 237/176/1
f 255/177/1 256/178/1 240/179/1 239/180/1

g mesh_0003
f 60/181/1 61/182/1 45/183/1 44/184/1
f 61/185/1 62/186/1 46/187/1 45/188/1
f 62/189/1 63/190/1 47/191/1 46/192/1
f 63/193/1 64/194/1 48/195/1 47/196/1
f 76/197/1 77/198/1 61/199/1 60/200/1
f 77/201/1 78/202/1 62/203/1 61/204/1
f 78/205/1 79/206/1 63/207/1 62/208/1
f 79/209/1 80/210/1 64/211/1 63/212/1
f 82/181/1 83/182/1 67/183/1 66/184/1
f 83/185/1 84/186/1 68/187/1 67/188/1
f 84/189/1 85/190/1 69/191/1 68/192/1
f 85/193/1 86/194/1 70/195/1 69/196/1
f 92/213/1 93/214/1 77/215/1 76/216/1
f 93/217/1 94/218/1 78/219/1 77/220/1
f 94/221/1 95/222/1 79/223/1 78/224/1
f 95/225/1 96/226/1 80/227/1 79/228/1
f 98/197/1 99/198/1 83/199/1 82/200/1
f 99/201/1 100/202/1 84/203/1 83/204/1
f 100/205/1 101/206/1 85/207/1 84/208/1
f 101/209/1 102/210/1 86/211/1 85/212/1
f 108/229/1 109/230/1 93/231/1 92/232/1
f 109/233/1 110/234/1 94/235/1 93/236/1
f 110/237/1 111/238/1 95/239/1 94/240/1
f 111/241/1 112/242/1 96/243/1 95/244/1
f 114/213/1 115/214/1 99/215/1 98/216/1
f 115/217/1 116/218/1 100/219/1 99/220/1
f 116/221/1 117/222/1 101/223/1 100/224/1
f 117/225/1 118/226/1 102/227/1 101/228/1
f 130/229/1 131/230/1 115/231/1 114/232/1
f 131/233/1 132/234/1 116/235/1 115/236/1
f 132/237/1 133/238/1 117/239/1 116/240/1
f 133/241/1 134/242/1 118/243/1 117/244/1
f 171/181/1 172/182/1 156/183/1 155/184/1
f 172/185/1 173/186/1 157/187/1 156/188/1
f 173/189/1 174/190/1 158/191/1 157/192/1
f 174/193/1 175/194/1 159/195/1 158/196/1
f 187/197/1 188/198/1 172/199/1 171/200/1
f 188/201/1 189/202/1 173/203/1 172/204/1
f 189/205/1 190/206/1 174/207/1 173/208/1
f 190/209/1 191/210/1 175/211/1 174/212/1
f 203/213/1 204/214/1 188/215/1 187/216/1
f 204/217/1 205/218/1 189/219/1 188/220/1
f 205/221/1 206/222/1 190/223/1 189/224/1
f 206/225/1 207/226/1 191/227/1 190/228/1
f 219/229/1 220/230/1 204/231/1 203/232/1
f 220/233/1 221/234/1 205/235/1 204/236/1
f 221/237/1 222/238/1 206/239/1 205/240/1
f 222/241/1 223/242/1 207/243/1 206/244/1

g mesh_0004
f 9/245/1 11/246/1 12/247/1 10/248/1
f 11/245/1 13/246/1 14/247/1 12/248/1
f 13/245/1 15/246/1 16/247/1 14/248/1
f 15/245/1 17/246/1 18/247/1 16/248/1
f 17/245/1 19/246/1 20/247/1 18/248/1
f 19/245/1 21/246/1 22/247/1 20/248/1
f 21/245/1 23/246/1 24/247/1 22/248/1
f 37/245/1 38/246/1 11/247/1 9/248/1
f 38/245/1 39/246/1 13/247/1 11/248/1
f 39/245/1 40/246/1 15/247/1 13/248/1
f 40/245/1 41/246/1 17/247/1 15/248/1
f 41/245/1 42/246/1 19/247/1 17/248/1
f 42/245/1 43/246/1 21/247/1 19/248/1
f 43/245/1 44/246/1 23/247/1 21/248/1
f 50/245/1 51/246/1 35/247/1 34/248/1
f 53/245/1 54/246/1 38/247/1 37/248/1
f 54/245/1 55/246/1 39/247/1 38/248/1
f 58/245/1 59/246/1 43/247/1 42/248/1
f 59/245/1 60/246/1 44/247/1 43/248/1
f 69/245/1 70/246/1 54/247/1 53/248/1
f 70/245/1 71/246/1 55/247/1 54/248/1
f 74/245/1 75/246/1 59/247/1 58/248/1
f 75/245/1 76/246/1 60/247/1 59/248/1
f 86/245/1 87/246/1 71/247/1 70/248/1
f 90/245/1 91/246/1 75/247/1 74/248/1
f 102/245/1 103/246/1 87/247/1 86/248/1
f 106/245/1 107/246/1 91/247/1 90/248/1
f 125/245/1 126/246/1 110/247/1 109/248/1
f 126/245/1 127/246/1 111/247/1 110/248/1
f 129/245/1 130/246/1 114/247/1 113/248/1
f 147/245/1 148/246/1 132/247/1 131/248/1
f 148/245/1 149/246/1 133/247/1 132/248/1
f 195/245/1 196/246/1 180/247/1 179/248/1
f 211/245/1 212/246/1 196/247/1 195/248/1
f 236/245/1 237/246/1 221/247/1 220/248/1
f 237/245/1 238/246/1 222/247/1 221/248/1
f 253/245/1 254/246/1 238/247/1 237/248/1
f 255/245/1 256/246/1 240/247/1 239/248/1

